<mxfile host="app.diagrams.net" modified="2021-03-04T11:29:48.468Z" agent="5.0 (Macintosh; Intel Mac OS X 11_2_2) AppleWebKit/537.36 (KHTML, like Gecko) Chrome/88.0.4324.192 Safari/537.36" etag="tn6RzpddtZFtOIuWY1TQ" version="14.4.3" type="github">
  <diagram id="qw9rI07wksaECOxZq3Me" name="第 1 页">
    <mxGraphModel dx="2066" dy="1021" grid="1" gridSize="10" guides="1" tooltips="1" connect="1" arrows="1" fold="1" page="1" pageScale="1" pageWidth="413" pageHeight="291" math="0" shadow="0">
      <root>
        <mxCell id="0" />
        <mxCell id="1" parent="0" />
        <mxCell id="wL68jLW9mCfYWidtdzE7-35" value="" style="rounded=1;arcSize=10;dashed=1;strokeColor=#000000;fillColor=none;gradientColor=none;dashPattern=8 3 1 3;strokeWidth=2;sketch=0;" vertex="1" parent="1">
          <mxGeometry x="550" y="285" width="400" height="370" as="geometry" />
        </mxCell>
        <mxCell id="wL68jLW9mCfYWidtdzE7-59" value="" style="rounded=1;arcSize=10;dashed=1;strokeColor=#000000;fillColor=none;gradientColor=none;dashPattern=8 3 1 3;strokeWidth=2;sketch=0;" vertex="1" parent="1">
          <mxGeometry x="1380" y="358" width="200" height="297" as="geometry" />
        </mxCell>
        <mxCell id="wL68jLW9mCfYWidtdzE7-33" value="" style="rounded=1;arcSize=10;dashed=1;strokeColor=#000000;fillColor=none;gradientColor=none;dashPattern=8 3 1 3;strokeWidth=2;sketch=0;" vertex="1" parent="1">
          <mxGeometry x="220" y="355" width="270" height="140" as="geometry" />
        </mxCell>
        <mxCell id="wL68jLW9mCfYWidtdzE7-45" value="" style="rounded=1;arcSize=10;dashed=1;strokeColor=#000000;fillColor=none;gradientColor=none;dashPattern=8 3 1 3;strokeWidth=2;sketch=0;" vertex="1" parent="1">
          <mxGeometry x="1010" y="355" width="310" height="300" as="geometry" />
        </mxCell>
        <mxCell id="7sA82I2yNGj9qkQ9EEGA-17" value="" style="edgeStyle=elbowEdgeStyle;elbow=vertical;endArrow=classic;html=1;exitX=0.5;exitY=0;exitDx=0;exitDy=0;entryX=0.5;entryY=0;entryDx=0;entryDy=0;" parent="1" source="wL68jLW9mCfYWidtdzE7-2" edge="1" target="7sA82I2yNGj9qkQ9EEGA-32">
          <mxGeometry width="50" height="50" relative="1" as="geometry">
            <mxPoint x="550" y="415" as="sourcePoint" />
            <mxPoint x="180" y="415" as="targetPoint" />
            <Array as="points">
              <mxPoint x="250" y="315" />
            </Array>
          </mxGeometry>
        </mxCell>
        <mxCell id="7sA82I2yNGj9qkQ9EEGA-32" value="&lt;b&gt;E2E Design&lt;/b&gt;" style="rounded=1;whiteSpace=wrap;html=1;sketch=0;strokeWidth=2;fillColor=none;" parent="1" vertex="1">
          <mxGeometry x="40" y="415" width="120" height="60" as="geometry" />
        </mxCell>
        <mxCell id="wL68jLW9mCfYWidtdzE7-2" value="&lt;b&gt;Review &amp;amp; Approve&lt;/b&gt;" style="rounded=1;whiteSpace=wrap;html=1;sketch=0;strokeWidth=2;fillColor=none;" vertex="1" parent="1">
          <mxGeometry x="330" y="415" width="120" height="60" as="geometry" />
        </mxCell>
        <mxCell id="wL68jLW9mCfYWidtdzE7-3" value="Merge Request" style="text;html=1;strokeColor=none;fillColor=none;align=center;verticalAlign=middle;whiteSpace=wrap;rounded=0;sketch=0;" vertex="1" parent="1">
          <mxGeometry x="230" y="415" width="90" height="20" as="geometry" />
        </mxCell>
        <mxCell id="wL68jLW9mCfYWidtdzE7-11" value="&lt;font style=&quot;font-size: 18px&quot;&gt;×&lt;/font&gt;" style="text;html=1;align=center;verticalAlign=middle;resizable=0;points=[];autosize=1;" vertex="1" parent="1">
          <mxGeometry x="215" y="284" width="30" height="20" as="geometry" />
        </mxCell>
        <mxCell id="wL68jLW9mCfYWidtdzE7-12" value="&lt;b&gt;Green&lt;/b&gt;" style="rounded=1;whiteSpace=wrap;html=1;sketch=0;strokeWidth=2;fillColor=none;" vertex="1" parent="1">
          <mxGeometry x="590" y="415" width="120" height="60" as="geometry" />
        </mxCell>
        <mxCell id="wL68jLW9mCfYWidtdzE7-13" value="&lt;b&gt;Refactor&lt;/b&gt;" style="rounded=1;whiteSpace=wrap;html=1;sketch=0;strokeWidth=2;fillColor=none;" vertex="1" parent="1">
          <mxGeometry x="790" y="375" width="120" height="60" as="geometry" />
        </mxCell>
        <mxCell id="wL68jLW9mCfYWidtdzE7-16" value="&lt;b&gt;Red&lt;/b&gt;" style="rounded=1;whiteSpace=wrap;html=1;sketch=0;strokeWidth=2;fillColor=none;" vertex="1" parent="1">
          <mxGeometry x="590" y="335" width="120" height="60" as="geometry" />
        </mxCell>
        <mxCell id="wL68jLW9mCfYWidtdzE7-17" value="" style="edgeStyle=segmentEdgeStyle;endArrow=classic;html=1;entryX=1;entryY=0.5;entryDx=0;entryDy=0;exitX=0.5;exitY=0;exitDx=0;exitDy=0;" edge="1" parent="1" source="wL68jLW9mCfYWidtdzE7-13" target="wL68jLW9mCfYWidtdzE7-16">
          <mxGeometry width="50" height="50" relative="1" as="geometry">
            <mxPoint x="910" y="405" as="sourcePoint" />
            <mxPoint x="880" y="335" as="targetPoint" />
            <Array as="points">
              <mxPoint x="850" y="365" />
            </Array>
          </mxGeometry>
        </mxCell>
        <mxCell id="wL68jLW9mCfYWidtdzE7-18" value="" style="edgeStyle=segmentEdgeStyle;endArrow=classic;html=1;" edge="1" parent="1">
          <mxGeometry width="50" height="50" relative="1" as="geometry">
            <mxPoint x="650" y="395" as="sourcePoint" />
            <mxPoint x="650" y="415" as="targetPoint" />
            <Array as="points">
              <mxPoint x="650" y="405" />
              <mxPoint x="650" y="405" />
            </Array>
          </mxGeometry>
        </mxCell>
        <mxCell id="wL68jLW9mCfYWidtdzE7-25" value="&lt;b&gt;Build &amp;amp; Test&lt;/b&gt;" style="rounded=1;whiteSpace=wrap;html=1;sketch=0;strokeWidth=2;fillColor=none;" vertex="1" parent="1">
          <mxGeometry x="1120" y="495" width="120" height="60" as="geometry" />
        </mxCell>
        <mxCell id="wL68jLW9mCfYWidtdzE7-29" value="Merge Request" style="text;html=1;strokeColor=none;fillColor=none;align=center;verticalAlign=middle;whiteSpace=wrap;rounded=0;sketch=0;" vertex="1" parent="1">
          <mxGeometry x="1020" y="415" width="90" height="20" as="geometry" />
        </mxCell>
        <mxCell id="wL68jLW9mCfYWidtdzE7-34" value="&lt;b&gt;&lt;font style=&quot;font-size: 14px&quot;&gt;Gitlab&lt;/font&gt;&lt;/b&gt;" style="text;html=1;strokeColor=none;fillColor=none;align=center;verticalAlign=middle;whiteSpace=wrap;rounded=0;sketch=0;" vertex="1" parent="1">
          <mxGeometry x="240" y="365" width="40" height="20" as="geometry" />
        </mxCell>
        <mxCell id="wL68jLW9mCfYWidtdzE7-36" value="&lt;b&gt;&lt;font style=&quot;font-size: 14px&quot;&gt;Visual Studio Code&lt;/font&gt;&lt;/b&gt;" style="text;html=1;strokeColor=none;fillColor=none;align=center;verticalAlign=middle;whiteSpace=wrap;rounded=0;sketch=0;" vertex="1" parent="1">
          <mxGeometry x="570" y="295" width="130" height="20" as="geometry" />
        </mxCell>
        <mxCell id="wL68jLW9mCfYWidtdzE7-37" value="TDD" style="text;html=1;strokeColor=none;fillColor=none;align=center;verticalAlign=middle;whiteSpace=wrap;rounded=0;sketch=0;" vertex="1" parent="1">
          <mxGeometry x="730" y="395" width="40" height="20" as="geometry" />
        </mxCell>
        <mxCell id="wL68jLW9mCfYWidtdzE7-40" value="&lt;b&gt;Review &amp;amp; Approve&lt;/b&gt;" style="rounded=1;whiteSpace=wrap;html=1;sketch=0;strokeWidth=2;fillColor=none;" vertex="1" parent="1">
          <mxGeometry x="1120" y="415" width="120" height="60" as="geometry" />
        </mxCell>
        <mxCell id="wL68jLW9mCfYWidtdzE7-41" value="&lt;b&gt;Merge&lt;/b&gt;" style="rounded=1;whiteSpace=wrap;html=1;sketch=0;strokeWidth=2;fillColor=none;" vertex="1" parent="1">
          <mxGeometry x="1120" y="575" width="120" height="60" as="geometry" />
        </mxCell>
        <mxCell id="wL68jLW9mCfYWidtdzE7-42" value="" style="endArrow=classic;html=1;exitX=0.5;exitY=1;exitDx=0;exitDy=0;" edge="1" parent="1" source="wL68jLW9mCfYWidtdzE7-40" target="wL68jLW9mCfYWidtdzE7-25">
          <mxGeometry width="50" height="50" relative="1" as="geometry">
            <mxPoint x="1390" y="315" as="sourcePoint" />
            <mxPoint x="1440" y="265" as="targetPoint" />
          </mxGeometry>
        </mxCell>
        <mxCell id="wL68jLW9mCfYWidtdzE7-44" value="" style="endArrow=classic;html=1;exitX=0.5;exitY=1;exitDx=0;exitDy=0;" edge="1" parent="1" source="wL68jLW9mCfYWidtdzE7-25" target="wL68jLW9mCfYWidtdzE7-41">
          <mxGeometry width="50" height="50" relative="1" as="geometry">
            <mxPoint x="1510" y="325" as="sourcePoint" />
            <mxPoint x="1560" y="275" as="targetPoint" />
          </mxGeometry>
        </mxCell>
        <mxCell id="wL68jLW9mCfYWidtdzE7-46" value="" style="endArrow=classic;html=1;exitX=1;exitY=0.5;exitDx=0;exitDy=0;entryX=0;entryY=0.5;entryDx=0;entryDy=0;" edge="1" parent="1" source="7sA82I2yNGj9qkQ9EEGA-32" target="wL68jLW9mCfYWidtdzE7-2">
          <mxGeometry width="50" height="50" relative="1" as="geometry">
            <mxPoint x="160" y="445" as="sourcePoint" />
            <mxPoint x="355" y="445" as="targetPoint" />
          </mxGeometry>
        </mxCell>
        <mxCell id="wL68jLW9mCfYWidtdzE7-51" value="&lt;font style=&quot;font-size: 18px&quot;&gt;×&lt;/font&gt;" style="text;html=1;align=center;verticalAlign=middle;resizable=0;points=[];autosize=1;rotation=90;" vertex="1" parent="1">
          <mxGeometry x="1284" y="435" width="30" height="20" as="geometry" />
        </mxCell>
        <mxCell id="wL68jLW9mCfYWidtdzE7-52" value="&lt;b&gt;&lt;font style=&quot;font-size: 14px&quot;&gt;Gitlab&lt;/font&gt;&lt;/b&gt;" style="text;html=1;strokeColor=none;fillColor=none;align=center;verticalAlign=middle;whiteSpace=wrap;rounded=0;sketch=0;" vertex="1" parent="1">
          <mxGeometry x="1030" y="365" width="40" height="20" as="geometry" />
        </mxCell>
        <mxCell id="wL68jLW9mCfYWidtdzE7-53" value="&lt;b&gt;E2E Testing&lt;/b&gt;" style="rounded=1;whiteSpace=wrap;html=1;sketch=0;strokeWidth=2;fillColor=none;" vertex="1" parent="1">
          <mxGeometry x="1420" y="495" width="120" height="60" as="geometry" />
        </mxCell>
        <mxCell id="wL68jLW9mCfYWidtdzE7-54" value="&lt;b&gt;Deploy&lt;/b&gt;" style="rounded=1;whiteSpace=wrap;html=1;sketch=0;strokeWidth=2;fillColor=none;" vertex="1" parent="1">
          <mxGeometry x="1420" y="415" width="120" height="60" as="geometry" />
        </mxCell>
        <mxCell id="wL68jLW9mCfYWidtdzE7-55" value="&lt;b&gt;&lt;font style=&quot;font-size: 12px&quot;&gt;√&lt;/font&gt;&lt;/b&gt;" style="text;html=1;strokeColor=none;fillColor=none;align=center;verticalAlign=middle;whiteSpace=wrap;rounded=0;sketch=0;" vertex="1" parent="1">
          <mxGeometry x="1180" y="475" width="40" height="20" as="geometry" />
        </mxCell>
        <mxCell id="wL68jLW9mCfYWidtdzE7-56" value="&lt;b&gt;&lt;font style=&quot;font-size: 12px&quot;&gt;√&lt;/font&gt;&lt;/b&gt;" style="text;html=1;strokeColor=none;fillColor=none;align=center;verticalAlign=middle;whiteSpace=wrap;rounded=0;sketch=0;" vertex="1" parent="1">
          <mxGeometry x="1180" y="555" width="40" height="20" as="geometry" />
        </mxCell>
        <mxCell id="wL68jLW9mCfYWidtdzE7-60" value="&lt;b&gt;&lt;font style=&quot;font-size: 14px&quot;&gt;CTest&lt;/font&gt;&lt;/b&gt;" style="text;html=1;strokeColor=none;fillColor=none;align=center;verticalAlign=middle;whiteSpace=wrap;rounded=0;sketch=0;" vertex="1" parent="1">
          <mxGeometry x="1400" y="365" width="40" height="20" as="geometry" />
        </mxCell>
        <mxCell id="wL68jLW9mCfYWidtdzE7-63" value="&lt;font style=&quot;font-size: 20px&quot;&gt;&lt;b&gt;Continuous Integration&lt;/b&gt;&lt;/font&gt;" style="text;html=1;strokeColor=none;fillColor=none;align=center;verticalAlign=middle;whiteSpace=wrap;rounded=0;sketch=0;" vertex="1" parent="1">
          <mxGeometry x="40" y="198" width="230" height="20" as="geometry" />
        </mxCell>
        <mxCell id="wL68jLW9mCfYWidtdzE7-64" value="&lt;font style=&quot;font-size: 20px&quot;&gt;&lt;b&gt;Continuous Deployment&lt;/b&gt;&lt;/font&gt;" style="text;html=1;strokeColor=none;fillColor=none;align=center;verticalAlign=middle;whiteSpace=wrap;rounded=0;sketch=0;" vertex="1" parent="1">
          <mxGeometry x="1380" y="198" width="240" height="20" as="geometry" />
        </mxCell>
        <mxCell id="wL68jLW9mCfYWidtdzE7-65" value="" style="endArrow=classic;html=1;" edge="1" parent="1">
          <mxGeometry width="50" height="50" relative="1" as="geometry">
            <mxPoint x="1479.5" y="475" as="sourcePoint" />
            <mxPoint x="1479.5" y="495" as="targetPoint" />
            <Array as="points" />
          </mxGeometry>
        </mxCell>
        <mxCell id="wL68jLW9mCfYWidtdzE7-66" value="" style="edgeStyle=elbowEdgeStyle;elbow=horizontal;endArrow=classic;html=1;exitX=1;exitY=0.5;exitDx=0;exitDy=0;entryX=0;entryY=0.5;entryDx=0;entryDy=0;" edge="1" parent="1" source="wL68jLW9mCfYWidtdzE7-2" target="wL68jLW9mCfYWidtdzE7-16">
          <mxGeometry width="50" height="50" relative="1" as="geometry">
            <mxPoint x="500" y="475" as="sourcePoint" />
            <mxPoint x="550" y="425" as="targetPoint" />
          </mxGeometry>
        </mxCell>
        <mxCell id="wL68jLW9mCfYWidtdzE7-67" value="&lt;b&gt;&lt;font style=&quot;font-size: 12px&quot;&gt;√&lt;/font&gt;&lt;/b&gt;" style="text;html=1;strokeColor=none;fillColor=none;align=center;verticalAlign=middle;whiteSpace=wrap;rounded=0;sketch=0;" vertex="1" parent="1">
          <mxGeometry x="484" y="415" width="40" height="20" as="geometry" />
        </mxCell>
        <mxCell id="wL68jLW9mCfYWidtdzE7-73" value="" style="edgeStyle=segmentEdgeStyle;endArrow=classic;html=1;entryX=0.5;entryY=1;entryDx=0;entryDy=0;exitX=1;exitY=0.5;exitDx=0;exitDy=0;" edge="1" parent="1" source="wL68jLW9mCfYWidtdzE7-12" target="wL68jLW9mCfYWidtdzE7-13">
          <mxGeometry width="50" height="50" relative="1" as="geometry">
            <mxPoint x="820" y="585" as="sourcePoint" />
            <mxPoint x="870" y="535" as="targetPoint" />
          </mxGeometry>
        </mxCell>
        <mxCell id="wL68jLW9mCfYWidtdzE7-74" value="&lt;b&gt;Style&lt;/b&gt;" style="rounded=1;whiteSpace=wrap;html=1;sketch=0;strokeWidth=2;fillColor=none;" vertex="1" parent="1">
          <mxGeometry x="590" y="495" width="120" height="60" as="geometry" />
        </mxCell>
        <mxCell id="wL68jLW9mCfYWidtdzE7-76" value="&lt;b&gt;Snapshot&lt;/b&gt;" style="rounded=1;whiteSpace=wrap;html=1;sketch=0;strokeWidth=2;fillColor=none;" vertex="1" parent="1">
          <mxGeometry x="590" y="575" width="120" height="60" as="geometry" />
        </mxCell>
        <mxCell id="wL68jLW9mCfYWidtdzE7-82" value="" style="edgeStyle=segmentEdgeStyle;endArrow=classic;html=1;" edge="1" parent="1">
          <mxGeometry width="50" height="50" relative="1" as="geometry">
            <mxPoint x="650" y="475" as="sourcePoint" />
            <mxPoint x="650" y="495" as="targetPoint" />
            <Array as="points">
              <mxPoint x="650" y="495" />
            </Array>
          </mxGeometry>
        </mxCell>
        <mxCell id="wL68jLW9mCfYWidtdzE7-84" value="" style="edgeStyle=segmentEdgeStyle;endArrow=classic;html=1;exitX=0.5;exitY=1;exitDx=0;exitDy=0;" edge="1" parent="1" source="wL68jLW9mCfYWidtdzE7-74">
          <mxGeometry width="50" height="50" relative="1" as="geometry">
            <mxPoint x="660" y="555" as="sourcePoint" />
            <mxPoint x="650" y="575" as="targetPoint" />
            <Array as="points">
              <mxPoint x="650" y="575" />
            </Array>
          </mxGeometry>
        </mxCell>
        <mxCell id="wL68jLW9mCfYWidtdzE7-85" value="" style="edgeStyle=elbowEdgeStyle;elbow=horizontal;endArrow=classic;html=1;exitX=1;exitY=0.5;exitDx=0;exitDy=0;" edge="1" parent="1" source="wL68jLW9mCfYWidtdzE7-76" target="wL68jLW9mCfYWidtdzE7-40">
          <mxGeometry width="50" height="50" relative="1" as="geometry">
            <mxPoint x="810" y="635" as="sourcePoint" />
            <mxPoint x="860" y="585" as="targetPoint" />
            <Array as="points">
              <mxPoint x="980" y="525" />
            </Array>
          </mxGeometry>
        </mxCell>
        <mxCell id="wL68jLW9mCfYWidtdzE7-86" value="" style="edgeStyle=elbowEdgeStyle;elbow=horizontal;endArrow=classic;html=1;exitX=1;exitY=0.5;exitDx=0;exitDy=0;" edge="1" parent="1" source="wL68jLW9mCfYWidtdzE7-40">
          <mxGeometry width="50" height="50" relative="1" as="geometry">
            <mxPoint x="1300" y="455" as="sourcePoint" />
            <mxPoint x="710" y="365" as="targetPoint" />
            <Array as="points">
              <mxPoint x="1280" y="425" />
            </Array>
          </mxGeometry>
        </mxCell>
        <mxCell id="wL68jLW9mCfYWidtdzE7-87" value="" style="edgeStyle=elbowEdgeStyle;elbow=horizontal;endArrow=classic;html=1;exitX=1;exitY=0.5;exitDx=0;exitDy=0;" edge="1" parent="1" source="wL68jLW9mCfYWidtdzE7-25">
          <mxGeometry width="50" height="50" relative="1" as="geometry">
            <mxPoint x="1250" y="455" as="sourcePoint" />
            <mxPoint x="710" y="365" as="targetPoint" />
            <Array as="points">
              <mxPoint x="1280" y="445" />
            </Array>
          </mxGeometry>
        </mxCell>
        <mxCell id="wL68jLW9mCfYWidtdzE7-88" value="" style="edgeStyle=elbowEdgeStyle;elbow=horizontal;endArrow=classic;html=1;exitX=1;exitY=0.5;exitDx=0;exitDy=0;entryX=0;entryY=0.5;entryDx=0;entryDy=0;" edge="1" parent="1" source="wL68jLW9mCfYWidtdzE7-41" target="wL68jLW9mCfYWidtdzE7-54">
          <mxGeometry width="50" height="50" relative="1" as="geometry">
            <mxPoint x="1290" y="625" as="sourcePoint" />
            <mxPoint x="1340" y="575" as="targetPoint" />
            <Array as="points">
              <mxPoint x="1350" y="525" />
            </Array>
          </mxGeometry>
        </mxCell>
        <mxCell id="wL68jLW9mCfYWidtdzE7-89" value="&lt;b&gt;Report&lt;/b&gt;" style="rounded=1;whiteSpace=wrap;html=1;sketch=0;strokeWidth=2;fillColor=none;" vertex="1" parent="1">
          <mxGeometry x="1420" y="575" width="120" height="60" as="geometry" />
        </mxCell>
        <mxCell id="wL68jLW9mCfYWidtdzE7-90" value="" style="endArrow=classic;html=1;exitX=0.5;exitY=1;exitDx=0;exitDy=0;" edge="1" parent="1" source="wL68jLW9mCfYWidtdzE7-53" target="wL68jLW9mCfYWidtdzE7-89">
          <mxGeometry width="50" height="50" relative="1" as="geometry">
            <mxPoint x="1489.5" y="485" as="sourcePoint" />
            <mxPoint x="1489.5" y="505" as="targetPoint" />
            <Array as="points" />
          </mxGeometry>
        </mxCell>
        <mxCell id="wL68jLW9mCfYWidtdzE7-91" value="" style="endArrow=none;dashed=1;html=1;" edge="1" parent="1">
          <mxGeometry width="50" height="50" relative="1" as="geometry">
            <mxPoint x="1350" y="698" as="sourcePoint" />
            <mxPoint x="1350" y="175" as="targetPoint" />
          </mxGeometry>
        </mxCell>
      </root>
    </mxGraphModel>
  </diagram>
</mxfile>
